<?xml version="1.0" encoding="utf-8"?>
<!-- Generator: Adobe Illustrator 21.1.0, SVG Export Plug-In . SVG Version: 6.00 Build 0)  -->
<svg version="1.1" id="Layer_1" xmlns="http://www.w3.org/2000/svg" xmlns:xlink="http://www.w3.org/1999/xlink" x="0px" y="0px"
	 viewBox="0 0 145 174.5" style="enable-background:new 0 0 145 174.5;" xml:space="preserve">
<style type="text/css">
	.st0{enable-background:new    ;}
	.st1{fill:#EF6327;}
	.st2{fill:#C4D5E0;}
	.st3{fill:none;stroke:#C4D5E0;stroke-width:9;}
	.st4{fill:none;stroke:#E2612A;stroke-width:9;stroke-linecap:round;stroke-linejoin:round;}
</style>
<title>Check Check</title>
<g id="Page-1">
	<g id="Logo" transform="translate(-25.000000, 16.000000)">
		<g class="st0">
			<path class="st1" d="M58,126.9c-1.6,0.3-3.6-0.1-5-1.2c-1.7-1.4-1.8-4.1-1.6-6c0.1-1.8,1.2-4,3.1-5.1c1.5-0.8,3.9-0.6,5.1,0.5
				c0.8,0.7,1.9,2.6,0.3,3c-0.7,0.2-1-0.3-1.4-0.7c-1.2-1.4-3.3-0.9-4,0.6c-0.8,1.6-1,4.1,0,5.5c0.8,1.1,2.3,1.5,3.6,0.8
				c0.4-0.2,0.9-0.8,1.4-0.9c0.4-0.1,1,0,1.3,0.5C61.5,125.1,59.4,126.5,58,126.9z"/>
		</g>
		<g class="st0">
			<path class="st2" d="M69.4,124.7c-0.1,1.3-0.1,2.2-1.2,2.1c-1.1-0.1-0.8-2.1-0.9-2.8c0-1.1,0.1-3-1.2-3c-1.6-0.1-1.5,0.7-1.6,1.8
				l0,0.7v1.3c0,0.9,0,2-1.1,2c-0.7,0-1.1-0.5-1.1-1.2v-10.4c0-0.1,0-0.3,0-0.4c0-0.1,0.1-0.3,0.1-0.4c0-0.1,0.1-0.2,0.2-0.3
				c0.1-0.1,0.2-0.2,0.4-0.2c0.1,0,0.3,0,0.4,0c0.2,0,0.4,0.1,0.5,0.2c0.1,0.1,0.3,0.2,0.3,0.4c0.1,0.2,0.1,0.4,0.1,0.6
				c0,0.2,0,1,0.1,1.2v0.1c0,0.8,0,1.6,0,2.4v0.3c1-0.3,2.2-0.3,3.1,0.1c1.8,0.9,1.7,2.3,1.8,4.1C69.5,123.7,69.5,124.3,69.4,124.7z
				"/>
			<path class="st2" d="M78.4,125c0,0.6-0.6,1-1.1,1.2c-0.7,0.3-1.6,0.5-2.6,0.5c-1.3-0.1-2.6-0.5-3.3-1.5c-0.6-1-0.7-2.5-0.5-3.6
				c0.3-1.4,0.9-2.2,1.8-2.8c1.1-0.6,2.5-0.6,3.7-0.1c0.8,0.4,1.5,1,1.8,1.8c0.2,0.4,0.3,1.3,0.1,1.9c-0.3,0.9-0.8,0.9-2.1,0.9
				c-1.2,0.1-2,0-3.3,0c-0.1,1,0.9,1.4,1.8,1.4c0.8,0.1,1.5-0.2,2.3-0.4C77.7,124.2,78.4,124.2,78.4,125z M75.6,120.3
				c-0.4-0.2-0.8-0.1-1.2,0c-0.4,0.1-0.6,0.3-0.9,0.5c-0.1,0.1-0.6,0.8-0.4,0.8h3.5c0-0.3-0.1-0.5-0.3-0.8
				C76.1,120.6,75.9,120.4,75.6,120.3z"/>
			<path class="st2" d="M86.7,121c-0.2,0.4-0.6,0.6-1.1,0.5c-0.5-0.1-0.6-0.5-1.3-0.6c-0.4-0.1-0.8,0-1.2,0.1
				c-1,0.5-1.3,2.3-0.5,3.2c0.3,0.3,0.8,0.6,1.2,0.6c0.4,0.1,0.8,0,1.2-0.1c0.3-0.1,0.7-0.4,1-0.4c0.8,0,1,1,0.6,1.6
				c-0.3,0.4-0.9,0.7-1.4,0.9c-0.6,0.2-1.4,0.2-2,0.1c-0.3,0-0.6-0.1-0.9-0.2c-2.1-0.8-2.8-3-2.3-4.9c0.5-1.9,1.6-2.5,3.2-2.8
				c0.8-0.2,1.9,0,2.6,0.5c0.3,0.1,0.5,0.4,0.7,0.7C86.9,120.2,86.9,120.6,86.7,121z"/>
			<path class="st2" d="M93.9,124.6c0.4,0.4,0.8,1,0.5,1.7c-0.4,0.7-1,0.5-1.6,0c-0.6-0.4-1.1-1-1.4-1.3c-0.1-0.1-0.2-0.2-0.2-0.2
				c0,0-0.1-0.1-0.1-0.1c-0.2-0.2-0.4-0.3-0.6-0.5v0.7c0,0.1,0,0.2,0,0.3c0,0.1,0,0.2,0,0.3c0,0.1-0.1,0.3-0.1,0.4
				c0,0.1,0,0.2-0.1,0.3c0,0.1,0,0.1,0,0.1c0,0,0,0.1-0.1,0.1c-0.1,0.1-0.2,0.3-0.3,0.3c-0.3,0.1-0.5,0.2-0.8,0.1
				c-0.2,0-0.3-0.1-0.4-0.2c-0.1-0.1-0.2-0.2-0.2-0.3c-0.1-0.1-0.1-0.3-0.1-0.4c0-0.1,0-0.2,0-0.3v-10.2c0-0.1,0-0.3,0-0.4
				c0-0.1,0.1-0.3,0.1-0.4c0.1-0.1,0.1-0.2,0.2-0.3c0.1-0.1,0.3-0.2,0.4-0.2c0.1,0,0.3,0,0.4,0c0.2,0,0.3,0.1,0.5,0.1
				c0.2,0.1,0.3,0.2,0.3,0.4c0.1,0.2,0.1,0.4,0.1,0.7c0,0.2,0.1,0.9,0.1,1.1v0.1c0,0.8,0,1.5,0,2.3c0,0.8,0,1.6,0,2.3v0.2
				c0.2-0.2,0.4-0.4,0.6-0.5c0.1-0.1,0.1-0.1,0.1-0.1l0.2-0.2c0.3-0.3,0.8-0.9,1.4-1.4c0.6-0.4,1.2-0.6,1.6,0
				c0.3,0.6-0.1,1.2-0.5,1.7c-1.6,1.6-0.4,0.3-2,1.9C93.5,124.3,92.3,123,93.9,124.6z"/>
		</g>
		<g class="st0">
			<path class="st1" d="M107.2,126.9c-1.6,0.3-3.6-0.1-5-1.2c-1.7-1.4-1.8-4.1-1.6-6c0.1-1.8,1.2-4,3.1-5.1c1.5-0.8,3.9-0.6,5.1,0.5
				c0.8,0.7,1.9,2.6,0.3,3c-0.7,0.2-1-0.3-1.4-0.7c-1.2-1.4-3.3-0.9-4,0.6c-0.8,1.6-1,4.1,0,5.5c0.8,1.1,2.3,1.5,3.6,0.8
				c0.4-0.2,0.9-0.8,1.4-0.9c0.4-0.1,1,0,1.3,0.5C110.7,125.1,108.6,126.5,107.2,126.9z"/>
		</g>
		<g class="st0">
			<path class="st2" d="M118.6,124.7c-0.1,1.3-0.1,2.2-1.2,2.1c-1.1-0.1-0.8-2.1-0.9-2.8c0-1.1,0.1-3-1.2-3
				c-1.6-0.1-1.5,0.7-1.6,1.8l0,0.7v1.3c0,0.9,0,2-1.1,2c-0.7,0-1.1-0.5-1.1-1.2v-10.4c0-0.1,0-0.3,0-0.4c0-0.1,0.1-0.3,0.1-0.4
				c0-0.1,0.1-0.2,0.2-0.3c0.1-0.1,0.2-0.2,0.4-0.2c0.1,0,0.3,0,0.4,0c0.2,0,0.4,0.1,0.5,0.2c0.1,0.1,0.3,0.2,0.3,0.4
				c0.1,0.2,0.1,0.4,0.1,0.6c0,0.2,0,1,0.1,1.2v0.1c0,0.8,0,1.6,0,2.4v0.3c1-0.3,2.2-0.3,3.1,0.1c1.8,0.9,1.7,2.3,1.8,4.1
				C118.6,123.7,118.6,124.3,118.6,124.7z"/>
			<path class="st2" d="M127.6,125c0,0.6-0.6,1-1.1,1.2c-0.7,0.3-1.6,0.5-2.6,0.5c-1.3-0.1-2.6-0.5-3.3-1.5c-0.6-1-0.7-2.5-0.5-3.6
				c0.3-1.4,0.9-2.2,1.8-2.8c1.1-0.6,2.5-0.6,3.7-0.1c0.8,0.4,1.5,1,1.8,1.8c0.2,0.4,0.3,1.3,0.1,1.9c-0.3,0.9-0.8,0.9-2.1,0.9
				c-1.2,0.1-2,0-3.3,0c-0.1,1,0.9,1.4,1.8,1.4c0.8,0.1,1.5-0.2,2.3-0.4C126.9,124.2,127.6,124.2,127.6,125z M124.8,120.3
				c-0.4-0.2-0.8-0.1-1.2,0c-0.4,0.1-0.6,0.3-0.9,0.5c-0.1,0.1-0.6,0.8-0.4,0.8h3.5c0-0.3-0.1-0.5-0.3-0.8
				C125.3,120.6,125.1,120.4,124.8,120.3z"/>
			<path class="st2" d="M135.9,121c-0.2,0.4-0.6,0.6-1.1,0.5c-0.5-0.1-0.6-0.5-1.3-0.6c-0.4-0.1-0.8,0-1.2,0.1
				c-1,0.5-1.3,2.3-0.5,3.2c0.3,0.3,0.8,0.6,1.2,0.6c0.4,0.1,0.8,0,1.2-0.1c0.3-0.1,0.7-0.4,1-0.4c0.8,0,1,1,0.6,1.6
				c-0.3,0.4-0.9,0.7-1.4,0.9c-0.6,0.2-1.4,0.2-2,0.1c-0.3,0-0.6-0.1-0.9-0.2c-2.1-0.8-2.8-3-2.3-4.9c0.5-1.9,1.6-2.5,3.2-2.8
				c0.8-0.2,1.9,0,2.6,0.5c0.3,0.1,0.5,0.4,0.7,0.7C136.1,120.2,136.1,120.6,135.9,121z"/>
			<path class="st2" d="M143.1,124.6c0.4,0.4,0.8,1,0.5,1.7c-0.4,0.7-1,0.5-1.6,0c-0.6-0.4-1.1-1-1.4-1.3c-0.1-0.1-0.2-0.2-0.2-0.2
				c0,0-0.1-0.1-0.1-0.1c-0.2-0.2-0.4-0.3-0.6-0.5v0.7c0,0.1,0,0.2,0,0.3c0,0.1,0,0.2,0,0.3c0,0.1-0.1,0.3-0.1,0.4
				c0,0.1,0,0.2-0.1,0.3c0,0.1,0,0.1,0,0.1c0,0,0,0.1-0.1,0.1c-0.1,0.1-0.2,0.3-0.3,0.3c-0.3,0.1-0.5,0.2-0.8,0.1
				c-0.2,0-0.3-0.1-0.4-0.2c-0.1-0.1-0.2-0.2-0.2-0.3c-0.1-0.1-0.1-0.3-0.1-0.4c0-0.1,0-0.2,0-0.3v-10.2c0-0.1,0-0.3,0-0.4
				c0-0.1,0.1-0.3,0.1-0.4c0.1-0.1,0.1-0.2,0.2-0.3c0.1-0.1,0.3-0.2,0.4-0.2c0.1,0,0.3,0,0.4,0c0.2,0,0.3,0.1,0.5,0.1
				c0.2,0.1,0.3,0.2,0.3,0.4c0.1,0.2,0.1,0.4,0.1,0.7c0,0.2,0.1,0.9,0.1,1.1v0.1c0,0.8,0,1.5,0,2.3c0,0.8,0,1.6,0,2.3v0.2
				c0.2-0.2,0.4-0.4,0.6-0.5c0.1-0.1,0.1-0.1,0.1-0.1l0.2-0.2c0.3-0.3,0.8-0.9,1.4-1.4c0.6-0.4,1.2-0.6,1.6,0
				c0.3,0.6-0.1,1.2-0.5,1.7c-1.6,1.6-0.4,0.3-2,1.9C142.7,124.3,141.5,123,143.1,124.6z"/>
		</g>
		<path id="Stroke-1" class="st3" d="M136.6,58.8c0,21.6-17.5,39.1-39.1,39.1s-39-17.5-39-39.1s17.5-39,39.1-39
			S136.6,37.2,136.6,58.8z"/>
		<path id="Stroke-3" class="st4" d="M82.3,53.9l13.1,14.4l33.1-30.1L130,37c4.2,6.2,6.7,13.7,6.7,21.8c0,21.6-17.5,39.1-39.1,39.1
			c-10.1,0-19.4-3.9-26.3-10.2"/>
	</g>
</g>
</svg>
